<!DOCTYPE html> 
<html> 
<head>
<style>
p {
    display: block;
    margin-top: 0em;
    margin-bottom: 0em;
    margin-left: 0;
    margin-right: 0;
}
</style>
</head>
<body> 
<div style="text-align:center"> 
<span>UOC Plataformes de Distribució de Continguts <b>PAC2</b></span>
<p></p>
<span>Clip-01-30.mp4 by <b>Jordi Coll Corbilla</b></span>
<p></p>
<video width="720" height="405" controls>
	<source src="Clip-01-30.mp4" type="video/mp4">
	<source src="Clip-01-30.webm" type="video/webm">
	<source src="Clip-01-30.ogg" type="video/ogg">
	Your browser does not support the video tag or the file format of this video.
</video>
</div>
<h2>Video Settings</h2>
<div style="overflow: auto;height: 300px;">
<p><b>General</b></p>
<p>Complete name: Clip-01-30.mp4</p>
<p>Format: MPEG-4</p>
<p>Format profile: Base Media</p>
<p>Codec ID:  isom</p>
<p>File size: 18.5 MiB</p>
<p>Duration:  30s 234ms</p>
<p>Overall bit rate: 5 125 Kbps</p>
<p>Writing application: Lavf57.71.100</p>
</br>
<p><b>Video</b></p>
<p>ID:  1</p>
<p>Format  :  AVC</p>
<p>Format/Info: Advanced Vi-deo Codec</p>
<p>Format profile  : High@L5</p>
<p>Format settings, CABAC   : Yes</p>
<p>Format settings, ReFrames: 5 frames</p>
<p>Codec ID:  avc1</p>
<p>Codec ID/Info   : Advanced Vi-deo Coding</p>
<p>Duration:  30s 234ms</p>
<p>Bit rate:  5 000 Kbps</p>
<p>Width   :  1 920 pixels</p>
<p>Height  :  1 080 pixels</p>
<p>Display aspect ratio: 16:9</p>
<p>Frame rate mode : Constant</p>
<p>Frame rate: 30.000 fps</p>
<p>Color space: YUV</p>
<p>Chroma subsampling : 4:2:0</p>
<p>Bit depth: 8 bits</p>
<p>Scan type: Progressive</p>
<p>Bits/(Pixel*Frame) : 0.080</p>
<p>Stream size: 18.0 MiB (97%)</p>
<p>Writing library : x264 core 146 r2555 0c21480</p>
<p>Encoding settings  : cabac=1 / ref=5 / deblock=1:0:0 / analyse=0x3:0x133 / me=hex / subme=7 / psy=1 / psy_rd=1.00:0.00 / mixed_ref=1 / me_range=16 / chroma_me=1 / trellis=1 / 8x8dct=1 / cqm=0 / deadzone=21,11 / fast_pskip=1 / chroma_qp_offset=-2 / thre-ads=12 / lookahead_threads=2 / sli-ced_threads=0 / nr=0 / decimate=1 / interla-ced=0 / bluray_compat=0 / constrained_intra=0 / bframes=3 / b_pyramid=2 / b_adapt=1 / b_bias=0 / direct=1 / weightb=1 / open_gop=0 / weightp=2 / keyint=30 / keyint_min=16 / scenecut=40 / intra_refresh=0 / rc_lookahead=30 / rc=2pass / mbtree=1 / bi-trate=5000 / ratetol=1.0 / qcomp=0.60 / qpmin=10 / qpmax=51 / qpstep=4 / cplxblur=20.0 / qblur=0.5 / ip_ratio=1.40 / aq=1:1.00</p>
</br>
<p><b>Audio</b></p>
<p>ID:  2</p>
<p>Format  :  AAC</p>
<p>Format/Info: Advanced Au-dio Codec</p>
<p>Format profile  : LC</p>
<p>Codec ID:  40</p>
<p>Duration:  30s 187ms</p>
<p>Bit rate mode   : Constant</p>
<p>Bit rate:  128 Kbps</p>
<p>Channel(s): 2 channels</p>
<p>Channel positions  : Front: L R</p>
<p>Sampling rate   : 48.0 KHz</p>
<p>Compression mode: Lossy</p>
<p>Stream size: 472 KiB (2%)</p>
<p>Language:  unk</p>
</div>
</body> 
</html>